<svg width="122" height="20" viewBox="0 0 122 20" fill="none" xmlns="http://www.w3.org/2000/svg">
<path d="M7.16928 14.2857C11.1289 14.2857 14.3389 11.0878 14.3389 7.14287C14.3389 6.69578 14.2977 6.25829 14.2188 5.83395C13.7929 5.75537 13.3537 5.71429 12.905 5.71429C8.9453 5.71429 5.73535 8.91227 5.73535 12.8572C5.73535 13.3043 5.77658 13.7417 5.85546 14.1661C6.28138 14.2447 6.72051 14.2857 7.16928 14.2857Z" fill="#7A5AF8"/>
<path fill-rule="evenodd" clip-rule="evenodd" d="M5.85581 14.1661C2.52359 13.5513 0 10.6407 0 7.14287C0 3.19797 3.20995 0 7.16963 0C10.6805 0 13.602 2.51418 14.2192 5.83396C13.7932 5.75537 13.3541 5.7143 12.9053 5.7143C8.94566 5.7143 5.7357 8.91227 5.7357 12.8572C5.7357 13.3043 5.77693 13.7417 5.85581 14.1661Z" fill="#5925DC"/>
<path fill-rule="evenodd" clip-rule="evenodd" d="M7.16929 14.2857C11.129 14.2857 14.3389 11.0877 14.3389 7.14284C14.3389 6.69575 14.2977 6.25826 14.2188 5.83392C17.551 6.44873 20.0746 9.35932 20.0746 12.8571C20.0746 16.802 16.8647 20 12.905 20C9.39407 20 6.47258 17.4858 5.85547 14.166C6.28139 14.2446 6.72052 14.2857 7.16929 14.2857Z" fill="#BDB4FE"/>
<path d="M34.8275 13.5266H36.9648C37.1012 13.5266 37.1921 13.6383 37.1921 13.7723C36.8511 15.9621 34.9412 17.7273 31.8264 17.7273C28.0294 17.7273 26.0059 15.2471 26.0059 11.739C26.0059 8.0969 28.1658 5.68373 31.7354 5.68373C35.3505 5.68373 37.374 8.05222 37.465 11.9625C37.465 12.0965 37.3513 12.2082 37.2149 12.2082H28.757C28.8706 14.6661 29.8938 15.828 31.8491 15.828C33.2815 15.828 34.2137 15.1577 34.532 13.7723C34.5547 13.6159 34.6911 13.5266 34.8275 13.5266ZM34.5092 10.3984C34.4183 8.9013 33.5316 7.56064 31.7354 7.56064C30.0984 7.56064 29.1435 8.54379 28.8479 10.3984H34.5092Z" fill="#101828"/>
<path d="M48.8647 6.1753L44.8631 17.2804C44.8177 17.4144 44.6585 17.5038 44.5221 17.5038H41.6801C41.5436 17.5038 41.3845 17.4144 41.339 17.2804L37.3602 6.1753C37.3147 6.06358 37.4056 5.95186 37.5193 5.95186H39.9976C40.134 5.95186 40.2704 6.04124 40.3159 6.19765L43.1807 15.3141L46.2728 6.1753C46.3183 6.04124 46.4547 5.95186 46.5911 5.95186H48.7056C48.842 5.95186 48.9102 6.06358 48.8647 6.1753Z" fill="#101828"/>
<path d="M60.3588 11.672C60.3588 15.3364 58.2898 17.7273 54.6065 17.7273C50.9233 17.7273 48.8088 15.3811 48.8088 11.739C48.8088 8.0969 50.9233 5.68373 54.6065 5.68373C58.2898 5.68373 60.3588 8.02987 60.3588 11.672ZM51.6053 11.7614C51.6053 14.465 52.6057 15.828 54.6065 15.828C56.5846 15.828 57.5395 14.4874 57.5395 11.739C57.5395 9.01302 56.5619 7.58299 54.5838 7.58299C52.583 7.60533 51.6053 9.03536 51.6053 11.7614Z" fill="#101828"/>
<path d="M64.5098 17.4591H62.2362C62.0998 17.4591 61.9861 17.3474 61.9861 17.2133L62.0998 9.59397L61.9861 2.06396C61.9861 1.9299 62.0998 1.81818 62.2362 1.81818H64.5098C64.6462 1.81818 64.7599 1.9299 64.7599 2.06396L64.6462 9.59397L64.7599 17.2133C64.7599 17.3474 64.6462 17.4591 64.5098 17.4591Z" fill="#101828"/>
<path d="M74.5562 15.7833C73.8059 16.8558 72.4645 17.7273 70.7138 17.7273C68.281 17.7273 66.7349 16.1185 66.7349 13.2137V10.8452L66.6667 6.19765C66.6667 6.06358 66.7804 5.95186 66.9168 5.95186H69.1905C69.3269 5.95186 69.4406 6.06358 69.4406 6.19765L69.3724 10.8452V13.1467C69.3724 14.7778 70.2818 15.6269 71.5323 15.6269C72.8965 15.6269 74.1924 14.4874 74.4198 12.0965V10.8452L74.3743 6.19765C74.3743 6.06358 74.488 5.95186 74.6244 5.95186H76.9435C77.08 5.95186 77.1936 6.06358 77.1936 6.19765L77.08 11.3592L77.1482 17.2133C77.1482 17.3474 77.0345 17.4591 76.8981 17.4591H74.7381C74.6017 17.4591 74.488 17.3474 74.488 17.2133L74.5562 15.7833Z" fill="#101828"/>
<path d="M85.6054 15.6493V17.0346C85.6054 17.1687 85.4917 17.3251 85.3553 17.3474C84.8096 17.5262 84.173 17.6602 83.5591 17.6602C81.7175 17.6602 80.035 16.7441 80.035 14.1745L80.0577 7.96284H78.7845C78.6481 7.96284 78.5344 7.85112 78.5344 7.71705V6.19765C78.5344 6.06358 78.6481 5.95186 78.7845 5.95186H80.0577L80.0122 3.31524C80.0122 3.18117 80.1259 3.06945 80.2623 3.06945H82.5587C82.6951 3.06945 82.8088 3.18117 82.8088 3.31524L82.7861 5.95186H85.378C85.5144 5.95186 85.6281 6.06358 85.6281 6.19765V7.71705C85.6281 7.85112 85.5144 7.96284 85.378 7.96284H82.7633L82.7861 14.1075C82.7861 15.2694 83.2635 15.6269 84.1275 15.6269C84.605 15.6269 85.037 15.5599 85.3553 15.4705C85.4917 15.4482 85.6054 15.5375 85.6054 15.6493Z" fill="#101828"/>
<path d="M93.4876 15.6493V17.0346C93.4876 17.1687 93.3739 17.3251 93.2375 17.3474C92.6918 17.5262 92.0552 17.6602 91.4413 17.6602C89.5997 17.6602 87.9172 16.7441 87.9172 14.1745L87.9399 7.96284H86.6667C86.5303 7.96284 86.4166 7.85112 86.4166 7.71705V6.19765C86.4166 6.06358 86.5303 5.95186 86.6667 5.95186H87.9399L87.8945 3.31524C87.8945 3.18117 88.0081 3.06945 88.1446 3.06945H90.4409C90.5773 3.06945 90.691 3.18117 90.691 3.31524L90.6683 5.95186H93.2602C93.3966 5.95186 93.5103 6.06358 93.5103 6.19765V7.71705C93.5103 7.85112 93.3966 7.96284 93.2602 7.96284H90.6456L90.6683 14.1075C90.6683 15.2694 91.1457 15.6269 92.0097 15.6269C92.4872 15.6269 92.9192 15.5599 93.2375 15.4705C93.3739 15.4482 93.4876 15.5375 93.4876 15.6493Z" fill="#101828"/>
<path d="M97.5046 4.72293H95.231C95.0946 4.72293 94.9809 4.6112 94.9809 4.47714V2.30975C94.9809 2.17568 95.0946 2.06396 95.231 2.06396H97.5046C97.641 2.06396 97.7547 2.17568 97.7547 2.30975V4.47714C97.7547 4.6112 97.641 4.72293 97.5046 4.72293ZM97.5274 17.4591H95.2083C95.0718 17.4591 94.9582 17.3474 94.9582 17.2133L95.0491 11.6273L94.9582 6.19765C94.9582 6.06358 95.0718 5.95186 95.2083 5.95186H97.5274C97.6638 5.95186 97.7775 6.06358 97.7775 6.19765L97.6865 11.6273L97.7775 17.2133C97.7775 17.3474 97.6638 17.4591 97.5274 17.4591Z" fill="#101828"/>
<path d="M110.324 6.1753L106.322 17.2804C106.277 17.4144 106.118 17.5038 105.981 17.5038H103.139C103.003 17.5038 102.844 17.4144 102.798 17.2804L98.8192 6.1753C98.7738 6.06358 98.8647 5.95186 98.9784 5.95186H101.457C101.593 5.95186 101.729 6.04124 101.775 6.19765L104.64 15.3141L107.732 6.1753C107.777 6.04124 107.914 5.95186 108.05 5.95186H110.165C110.301 5.95186 110.369 6.06358 110.324 6.1753Z" fill="#101828"/>
<path d="M121.818 11.672C121.818 15.3364 119.749 17.7273 116.066 17.7273C112.382 17.7273 110.268 15.3811 110.268 11.739C110.268 8.0969 112.382 5.68373 116.066 5.68373C119.749 5.68373 121.818 8.02987 121.818 11.672ZM113.064 11.7614C113.064 14.465 114.065 15.828 116.066 15.828C118.044 15.828 118.999 14.4874 118.999 11.739C118.999 9.01302 118.021 7.58299 116.043 7.58299C114.042 7.60533 113.064 9.03536 113.064 11.7614Z" fill="#101828"/>
</svg>
