<svg width="21" height="20" viewBox="0 0 21 20" fill="none" xmlns="http://www.w3.org/2000/svg">
<path d="M7.16928 14.2857C11.1289 14.2857 14.3389 11.0878 14.3389 7.14287C14.3389 6.69578 14.2977 6.25829 14.2188 5.83395C13.7929 5.75537 13.3537 5.71429 12.905 5.71429C8.9453 5.71429 5.73535 8.91227 5.73535 12.8572C5.73535 13.3043 5.77658 13.7417 5.85546 14.1661C6.28138 14.2447 6.72051 14.2857 7.16928 14.2857Z" fill="#7A5AF8"/>
<path fill-rule="evenodd" clip-rule="evenodd" d="M5.85581 14.1661C2.52359 13.5513 0 10.6407 0 7.14287C0 3.19797 3.20995 0 7.16963 0C10.6805 0 13.602 2.51418 14.2192 5.83396C13.7932 5.75537 13.3541 5.7143 12.9053 5.7143C8.94566 5.7143 5.7357 8.91227 5.7357 12.8572C5.7357 13.3043 5.77693 13.7417 5.85581 14.1661Z" fill="#5925DC"/>
<path fill-rule="evenodd" clip-rule="evenodd" d="M7.16929 14.2857C11.129 14.2857 14.3389 11.0877 14.3389 7.14284C14.3389 6.69575 14.2977 6.25826 14.2188 5.83392C17.551 6.44873 20.0746 9.35932 20.0746 12.8571C20.0746 16.802 16.8647 20 12.905 20C9.39407 20 6.47258 17.4858 5.85547 14.166C6.28139 14.2446 6.72052 14.2857 7.16929 14.2857Z" fill="#BDB4FE"/>
</svg>
